<svg width="256" height="256" viewBox="0 0 256 256" fill="none" xmlns="http://www.w3.org/2000/svg">
  <rect width="256" height="256" rx="64" fill="#03AED2"/>
  <path d="M66 88C76 51 111 36 139 44C166 51 183 71 190 88H166C158 75 144 68 129 68C111 68 94 76 88 88H66Z" fill="#D12052"/>
  <path d="M55 83H181C197.569 83 211 96.4315 211 113V172C211 188.569 197.569 202 181 202H55C38.4315 202 25 188.569 25 172V113C25 96.4315 38.4315 83 55 83Z" fill="#F8DE22"/>
  <path d="M158 119H218V168H158C144.193 168 133 157.031 133 143.5C133 129.969 144.193 119 158 119Z" fill="#F45B26"/>
  <circle cx="166" cy="144" r="11" fill="white"/>
  <path d="M25 156H133C137.5 164 146 168 158 168H211V172C211 188.569 197.569 202 181 202H55C38.4315 202 25 188.569 25 172V156Z" fill="#F5CE1C" fill-opacity="0.55"/>
</svg>
